<svg xmlns="http://www.w3.org/2000/svg" viewBox="0 0 64 64"><defs><style>.cls-1{fill:#5aaeec;stroke:#5aaeec;stroke-miterlimit:10;}.cls-2{fill:none;}</style></defs><title>GTfavicon</title><g id="Layer_2" data-name="Layer 2"><g id="Layer_3" data-name="Layer 3"><path class="cls-1" d="M52.02513,11.96586l.43372.4399.42408.4508c.27539.30732.54172.62308.80375.94348q.78183.96411,1.47723,2.00255A28.56689,28.56689,0,0,1,57.50256,20.217a32.62658,32.62658,0,0,1,2.37282,9.71176,30.968,30.968,0,0,1,.0434,5.05567c-.06447.84448-.18761,1.68441-.33358,2.51938a24.57277,24.57277,0,0,1-.55886,2.48165,28.24486,28.24486,0,0,1-4.41166,9.101A27.25443,27.25443,0,0,1,47.27354,55.972a28.02542,28.02542,0,0,1-9.25532,3.77921,31.63415,31.63415,0,0,1-9.89783.50872A37.08132,37.08132,0,0,1,23.2735,59.44q-1.19595-.287-2.37-.65093a20.65156,20.65156,0,0,1-2.30541-.83986.30748.30748,0,0,1,.19766-.57919c.78186.18153,1.55116.38966,2.334.54586q1.17168.2416,2.356.403c1.578.21655,3.16384.35244,4.75246.43666a30.28626,30.28626,0,0,0,9.34148-.87049,27.31092,27.31092,0,0,0,8.445-3.811,25.7437,25.7437,0,0,0,6.55271-6.43835A28.40716,28.40716,0,0,0,57.5786,30.08693a33.44263,33.44263,0,0,0-1.66453-9.28525,26.76091,26.76091,0,0,0-4.51455-8.30207.41112.41112,0,0,1,.61106-.54855Z"/><path class="cls-1" d="M16.16843,52.401a18.26971,18.26971,0,0,1-.31372-1.87477c-.0595-.62722-.10424-1.25573-.119-1.88282a35.997,35.997,0,0,1,.09069-3.75556,52.5914,52.5914,0,0,1,1.18229-7.39848,49.76737,49.76737,0,0,1,2.28984-7.14856c.47029-1.16346.98291-2.31239,1.55453-3.43548.28792-.56028.57614-1.12149.89571-1.66663.1576-.27356.31821-.54548.48844-.81229.16889-.26745.33-.53919.50954-.80053a36.8149,36.8149,0,0,1,4.78229-5.86239,35.8649,35.8649,0,0,1,2.81711-2.53078,30.73585,30.73585,0,0,1,3.10625-2.17322,25.71514,25.71514,0,0,1,6.94844-3.0299,19.21107,19.21107,0,0,1,3.76935-.56317l.47664-.0199.47748.00181c.31793-.00294.636.01379.95323.038.31741.01411.6328.06768.94793.10187.31474.04153.62653.10683.93858.15936a.435.435,0,0,1-.11767.86157l-.02215-.00241a17.03265,17.03265,0,0,0-7.04531.7602,25.15038,25.15038,0,0,0-6.41232,3.12258,33.34285,33.34285,0,0,0-2.86309,2.16033A34.0114,34.0114,0,0,0,28.864,19.084a34.88426,34.88426,0,0,0-4.46056,5.61469c-.166.2478-.31488.50773-.47119.76233-.15757.25382-.30625.51353-.45222.775-.303.516-.59033,1.04268-.87088,1.573-.56057,1.06151-1.06786,2.15431-1.53609,3.26484q-.702,1.66615-1.28351,3.385c-.39354,1.14313-.71847,2.30836-1.05367,3.47135a50.98667,50.98667,0,0,0-1.46749,7.111,29.20933,29.20933,0,0,0-.24369,7.20321l.00143.01272a.43548.43548,0,0,1-.85768.14391Z"/><path class="cls-1" d="M14.66547,28.58125a7.05966,7.05966,0,0,0-.43464,2.05577,8.94556,8.94556,0,0,0,.10366,2.164,7.93616,7.93616,0,0,0,.239,1.02948c.04682.16783.10678.32871.16348.49018.06785.15606.1278.31585.20561.46346a5.4889,5.4889,0,0,0,1.10212,1.55936,5.10235,5.10235,0,0,0,1.54929.91208,8.42961,8.42961,0,0,0,.84676.33578,6.3066,6.3066,0,0,0,.90485.25285,7.85411,7.85411,0,0,0,1.95937.11713,9.26074,9.26074,0,0,0,1.01259-.10906c.16946-.02108.33758-.07129.5067-.10416a5.10625,5.10625,0,0,0,.50551-.12084,11.76263,11.76263,0,0,0,3.79553-1.81288,9.90233,9.90233,0,0,0,.8244-.66c.12942-.11819.26842-.22781.39358-.34963l.367-.37328.18422-.18627.16575-.19982.33506-.39756c.10594-.13644.20307-.27871.30639-.41715.1-.14147.19061-.29317.28755-.43877a11.57194,11.57194,0,0,0,.94586-1.898,9.51548,9.51548,0,0,0,.55822-1.99741,6.51435,6.51435,0,0,0,.03627-1.91235,4.14965,4.14965,0,0,0-.56308-1.60462,8.43458,8.43458,0,0,0-3.1337-2.55992c-.34539-.19388-.69949-.38514-1.06911-.58242l-.55882-.30011-.286-.15669-.14329-.07876-.15964-.09493A8.35471,8.35471,0,0,1,23.282,19.65053a6.39538,6.39538,0,0,1-1.36832-2.88819,5.60969,5.60969,0,0,1-.05478-1.66689,5.44259,5.44259,0,0,1,.17386-.82243c.04182-.13351.07818-.26929.12816-.39908l.16666-.38226a2.67906,2.67906,0,0,1,.19174-.36623l.21116-.35236.43669-.59449c.15891-.18789.32374-.37115.48688-.55483.17361-.17375.35395-.34082.53193-.50934a9.37494,9.37494,0,0,1,2.44367-1.53,14.10738,14.10738,0,0,1,5.36574-1.04912,16.18366,16.18366,0,0,1,2.70071.16184,18.045,18.045,0,0,1,2.76486.66053,9.01684,9.01684,0,0,1,2.53681,1.35011,8.48281,8.48281,0,0,1,2.1357,2.23094,7.39763,7.39763,0,0,1,1.10884,3.07094,6.52356,6.52356,0,0,1-.00908,1.70326,5.73809,5.73809,0,0,1-.518,1.77557l-.84047,1.73541-3.6439-1.87623,1.05676-1.624a1.89437,1.89437,0,0,0,.21914-.59933,3.2254,3.2254,0,0,0,.06688-.78549,3.88317,3.88317,0,0,0-.42526-1.638,5.10039,5.10039,0,0,0-1.158-1.48644c-.26729-.24068-.54493-.46386-.82694-.67376-.283-.20948-.56695-.4175-.86847-.602a7.84919,7.84919,0,0,0-4.28272-.94788,10.49231,10.49231,0,0,0-4.36706.86178,6.30006,6.30006,0,0,0-1.739,1.16176l-.3559.36837-.32166.39649-.28655.42336-.09715.19045a.91538.91538,0,0,0-.08762.1909l-.07415.19375c-.02143.0653-.03116.13346-.04933.199a2.74416,2.74416,0,0,0-.06442.40133,2.60315,2.60315,0,0,0,.08588.81539,3.32051,3.32051,0,0,0,.88105,1.506,5.32047,5.32047,0,0,0,1.57639,1.10238l.11309.05686.13572.06123.27234.12257.56315.24785c.37939.16588.77327.34005,1.16987.52352a15.85391,15.85391,0,0,1,2.42186,1.35293,9.68831,9.68831,0,0,1,1.17656.95342,8.20808,8.20808,0,0,1,1.04642,1.22158,7.82117,7.82117,0,0,1,1.22091,3.01711,10.27382,10.27382,0,0,1,.07045,3.06094,14.4798,14.4798,0,0,1-1.87933,5.433c-.1261.20569-.24544.41394-.37925.61668-.13782.20069-.27175.40515-.41522.6016l-.45078.57277-.22717.28535-.24492.26706-.49455.53051c-.16788.17341-.35056.32953-.52708.49326a13.96559,13.96559,0,0,1-1.10978.9171c-.18563.15285-.38847.27969-.58624.4145-.19932.13232-.39641.26865-.5988.39608l-.62291.35638-.31235.17689c-.10615.05517-.21514.1051-.32273.15768l-.64877.30966c-.218.09954-.44525.18024-.668.27027a13.33819,13.33819,0,0,1-1.37128.45994c-.2288.0765-.47122.11634-.70732.173-.23874.049-.4727.11281-.71583.14706a13.46756,13.46756,0,0,1-1.4677.16477,12.06147,12.06147,0,0,1-3.0112-.17948,10.527,10.527,0,0,1-1.49942-.41008l-.36984-.131c-.06143-.0226-.12329-.043-.1842-.06773l-.18028-.08421-.35918-.17066c-.11764-.06207-.23173-.13446-.347-.20188a8.59891,8.59891,0,0,1-2.32423-2.19544,9.35419,9.35419,0,0,1-1.43945-2.71245,11.686,11.686,0,0,1-.57651-2.85358,12.97034,12.97034,0,0,1-.03067-1.41734,12.53417,12.53417,0,0,1,.10944-1.40281,12.16636,12.16636,0,0,1,.67867-2.798l.50619-1.32906,2.67138,1.05236Z"/><rect class="cls-2" width="64" height="64"/></g></g></svg>