<svg id="LOGO" xmlns="http://www.w3.org/2000/svg" viewBox="0 0 500 140.20377"><defs><style>.cls-1{fill:#0c120c;}</style></defs><title>⬚² labs- WEB</title><g id="outlines"><g id="labs"><polygon class="cls-1" points="140.204 16.921 135.369 16.921 135.369 4.835 123.283 4.835 123.283 0 140.204 0 140.204 16.921"/><rect class="cls-1" x="52.37458" width="35.45343" height="4.83461"/><polygon class="cls-1" points="4.835 16.921 0 16.921 0 0 16.921 0 16.921 4.835 4.835 4.835 4.835 16.921"/><rect class="cls-1" y="52.37458" width="4.83461" height="35.45343"/><polygon class="cls-1" points="16.921 140.204 0 140.204 0 123.283 4.835 123.283 4.835 135.369 16.921 135.369 16.921 140.204"/><rect class="cls-1" x="52.37458" y="135.36916" width="35.45343" height="4.83461"/><polygon class="cls-1" points="140.204 140.204 123.283 140.204 123.283 135.369 135.369 135.369 135.369 123.283 140.204 123.283 140.204 140.204"/><rect class="cls-1" x="135.36916" y="52.37458" width="4.83461" height="35.45343"/><path class="cls-1" d="M185.75725,46.26639V51.952H162.65946V45.55584q0-4.97507,2.84222-7.64025,2.8434-2.66458,8.529-3.96825,3.90747-.94544,4.79684-2.605a6.95984,6.95984,0,0,0,.88879-3.31671,5.57513,5.57513,0,0,0-1.30308-3.613,5.04344,5.04344,0,0,0-4.14648-1.59934,5.72556,5.72556,0,0,0-4.32235,1.65836,6.552,6.552,0,0,0-1.59934,4.73783v2.13285h-6.39618V29.20951a12.17968,12.17968,0,0,1,3.25652-8.52785q3.2577-3.55337,9.2986-3.554a13.316,13.316,0,0,1,5.03409.88879,10.29119,10.29119,0,0,1,3.613,2.36891,10.45872,10.45872,0,0,1,2.19068,3.43475,10.74481,10.74481,0,0,1,.77075,3.96825,12.571,12.571,0,0,1-2.13285,7.344q-2.13167,3.08065-7.8173,4.26452-4.26334.949-5.68563,2.36891a5.12134,5.12134,0,0,0-1.42111,3.79v.71056Z"/></g><g id="square_2" data-name="square 2"><path class="cls-1" d="M232.42614,101.894h21.32022V36.03651H233.13669V27.50866h29.84807V101.894h21.3214v8.52785h-51.88Z"/><path class="cls-1" d="M347.55625,100.47166h-1.42111a19.25938,19.25938,0,0,1-7.87631,8.7651,21.24986,21.24986,0,0,1-10.60168,2.8434,29.21652,29.21652,0,0,1-10.77873-1.95462,24.4278,24.4278,0,0,1-8.70608-5.80366,27.40387,27.40387,0,0,1-5.86268-9.41664,35.97658,35.97658,0,0,1-2.13167-12.9104v-1.8956a35.62324,35.62324,0,0,1,2.13167-12.79237,27.43744,27.43744,0,0,1,5.86268-9.41664,25.17378,25.17378,0,0,1,8.70608-5.86386,27.8562,27.8562,0,0,1,10.54267-2.01364,22.6173,22.6173,0,0,1,10.95578,2.66517,18.72711,18.72711,0,0,1,7.75828,8.23277h1.42111V51.6711h9.23959V98.34q0,3.55337,3.1975,3.554h2.96144v8.52785h-6.27815a8.7806,8.7806,0,0,1-6.57323-2.60616,9.086,9.086,0,0,1-2.54714-6.63225Zm-18.9513,2.8434a18.71584,18.71584,0,0,0,7.64025-1.54032,16.89669,16.89669,0,0,0,5.98189-4.38255,20.93915,20.93915,0,0,0,3.90806-6.81048,26.00816,26.00816,0,0,0,1.42111-8.82411V80.33649a25.65431,25.65431,0,0,0-1.42111-8.70608,20.39085,20.39085,0,0,0-3.96825-6.81166,18.19822,18.19822,0,0,0-6.04091-4.44156,17.86257,17.86257,0,0,0-7.521-1.59816,18.332,18.332,0,0,0-7.58123,1.53914A18.01742,18.01742,0,0,0,315.043,64.6417a19.69279,19.69279,0,0,0-3.96825,6.75146,25.65431,25.65431,0,0,0-1.42111,8.70608v1.8956q0,10.06877,5.27015,15.69361A17.88833,17.88833,0,0,0,328.60495,103.31506Z"/><path class="cls-1" d="M384.51224,110.4218h-9.23959V27.50866h9.23959v33.402h1.42111a20.34279,20.34279,0,0,1,8.52785-8.11356A25.67589,25.67589,0,0,1,406.307,50.01275a26.67207,26.67207,0,0,1,10.30424,2.01364,25.85355,25.85355,0,0,1,8.588,5.80484,27.52277,27.52277,0,0,1,5.92169,9.35762A34.40885,34.40885,0,0,1,433.3128,79.862v2.36891a35.58337,35.58337,0,0,1-2.13285,12.79237,26.76706,26.76706,0,0,1-5.86268,9.35762,24.78755,24.78755,0,0,1-8.70608,5.74464,28.56644,28.56644,0,0,1-10.54149,1.95462,27.01835,27.01835,0,0,1-5.80366-.65154,23.2764,23.2764,0,0,1-5.62661-2.01364,24.31647,24.31647,0,0,1-4.91606-3.31671,17.57548,17.57548,0,0,1-3.79-4.67881h-1.42111Zm19.66186-7.10674a20.089,20.089,0,0,0,7.8173-1.48131,18.58554,18.58554,0,0,0,6.21913-4.20432,18.94356,18.94356,0,0,0,4.1453-6.63343,24.58742,24.58742,0,0,0,1.48131-8.7651V79.862a23.76105,23.76105,0,0,0-1.48131-8.58687,19.715,19.715,0,0,0-4.1453-6.63343,18.82589,18.82589,0,0,0-6.27815-4.32353A19.59623,19.59623,0,0,0,404.1741,58.779a18.5439,18.5439,0,0,0-7.69926,1.59816,19.29818,19.29818,0,0,0-6.218,4.44156,20.87229,20.87229,0,0,0-4.2055,6.81166,23.87115,23.87115,0,0,0-1.53914,8.70608V81.7576a24.197,24.197,0,0,0,1.53914,8.82411,20.842,20.842,0,0,0,4.2055,6.81048,18.51026,18.51026,0,0,0,6.218,4.38255A19.12674,19.12674,0,0,0,404.1741,103.31506Z"/><path class="cls-1" d="M462.09621,66.83238a7.22132,7.22132,0,0,0,3.613,6.5154q3.6118,2.25029,13.20666,2.96144,10.30424.82859,15.69479,4.91487Q499.99823,85.31038,500,93.12885v.71056a16.62082,16.62082,0,0,1-1.71855,7.63907,17.03474,17.03474,0,0,1-4.73783,5.74464,21.24976,21.24976,0,0,1-7.3428,3.613,37.5989,37.5989,0,0,1-21.20218-.59252,24.38282,24.38282,0,0,1-8.17375-4.85586A20.2007,20.2007,0,0,1,451.91,98.51822a22.97424,22.97424,0,0,1-1.8956-7.75828l8.7651-2.13285a15.69363,15.69363,0,0,0,5.21232,10.83775q4.6192,4.08806,12.31788,4.08747,6.51363,0,10.48247-2.54714a8.05518,8.05518,0,0,0,3.96825-7.16576q0-4.97507-3.90924-7.10674-3.90747-2.13344-12.67315-2.72419-10.18916-.71174-15.63577-4.739-5.44956-4.02432-5.44838-11.72535v-.71174a14.53986,14.53986,0,0,1,1.77639-7.28379,16.11547,16.11547,0,0,1,4.798-5.27133,22.048,22.048,0,0,1,6.81048-3.1975,29.16766,29.16766,0,0,1,7.93533-1.067,29.679,29.679,0,0,1,10.18739,1.59934,23.50783,23.50783,0,0,1,7.344,4.14648,18.05208,18.05208,0,0,1,4.5596,5.86268,22.63716,22.63716,0,0,1,2.07265,6.63343l-8.7651,2.13167a12.55572,12.55572,0,0,0-4.5596-8.88313q-3.9712-3.19927-10.36444-3.19868a21.2646,21.2646,0,0,0-4.79684.53351,14.01974,14.01974,0,0,0-4.08747,1.59816,8.79993,8.79993,0,0,0-2.84222,2.66517A6.57184,6.57184,0,0,0,462.09621,66.83238Z"/></g></g></svg>