<?xml version="1.0" encoding="UTF-8"?>
<svg width="175px" height="61px" viewBox="0 0 175 61" version="1.1" xmlns="http://www.w3.org/2000/svg" xmlns:xlink="http://www.w3.org/1999/xlink">
    <!-- Generator: Sketch 46.2 (44496) - http://www.bohemiancoding.com/sketch -->
    <title>Designed &amp; developed</title>
    <desc>Created with Sketch.</desc>
    <defs></defs>
    <g id="Page-2" stroke="none" stroke-width="1" fill="none" fill-rule="evenodd">
        <path d="M10.8933333,1 C13.3333333,1 15.2266667,2.90666667 15.2266667,5.66666667 C15.2266667,8.42666667 13.36,10.3333333 10.8933333,10.3333333 L7.93333333,10.3333333 L7.93333333,1 L10.8933333,1 Z M10.8933333,9.16 C12.8533333,9.16 13.9333333,7.72 13.9333333,5.66666667 C13.9333333,3.61333333 12.84,2.17333333 10.8933333,2.17333333 L9.17333333,2.17333333 L9.17333333,9.16 L10.8933333,9.16 Z M19.9866667,3.6 C21.5866667,3.6 23.1466667,4.78666667 23.0133333,7.30666667 L17.9733333,7.30666667 C18.08,8.54666667 18.8533333,9.32 20,9.32 C20.76,9.32 21.32,8.98666667 21.64,8.46666667 L22.8666667,8.46666667 C22.36,9.68 21.2133333,10.4 20,10.4 C18.32,10.4 16.8266667,9.02666667 16.8266667,6.94666667 C16.8266667,4.88 18.32,3.6 19.9866667,3.6 Z M19.9733333,4.58666667 C18.9866667,4.58666667 18.24,5.26666667 18.0266667,6.33333333 L21.8,6.33333333 C21.64,5.30666667 20.9733333,4.58666667 19.9733333,4.58666667 Z M29.6,8.42666667 C29.6,7.05333333 28.36,6.70666667 27.3466667,6.44 C26.6933333,6.26666667 26.0666667,6.05333333 26.0666667,5.44 C26.0666667,4.89333333 26.5466667,4.54666667 27.16,4.54666667 C27.8666667,4.54666667 28.3866667,5 28.3866667,5.49333333 L29.4666667,5.49333333 C29.4666667,4.57333333 28.6533333,3.6 27.16,3.6 C25.9333333,3.6 24.96,4.26666667 24.96,5.45333333 C24.96,6.78666667 26.2,7.14666667 27.1066667,7.38666667 C27.84,7.58666667 28.4933333,7.8 28.4933333,8.48 C28.4933333,9.13333333 27.9066667,9.44 27.28,9.44 C26.5466667,9.44 25.84,9.01333333 25.84,8.18666667 L24.76,8.18666667 C24.76,9.4 25.76,10.4 27.2933333,10.4 C28.6,10.4 29.6,9.66666667 29.6,8.42666667 Z M32.4666667,2.50666667 C32.9333333,2.50666667 33.32,2.12 33.32,1.65333333 C33.32,1.17333333 32.9333333,0.8 32.4666667,0.8 C31.9866667,0.8 31.6,1.17333333 31.6,1.65333333 C31.6,2.12 31.9866667,2.50666667 32.4666667,2.50666667 Z M33.04,3.66666667 L31.8666667,3.66666667 L31.8666667,10.3333333 L33.04,10.3333333 L33.04,3.66666667 Z M38.6933333,9.04 C40.1733333,9.04 40.7866667,9.85333333 40.7866667,10.8666667 C40.7866667,12.36 39.44,13.0666667 37.9066667,13.0666667 C35.9066667,13.0666667 34.8266667,11.8666667 35.0933333,10.44 L36.1066667,9.73333333 C35.5866667,9.54666667 35.2133333,9.21333333 35.2133333,8.61333333 C35.2133333,8.06666667 35.52,7.62666667 36.0533333,7.36 C35.6933333,6.96 35.4933333,6.42666667 35.4933333,5.85333333 C35.4933333,4.6 36.4666667,3.58666667 37.96,3.58666667 C38.5066667,3.58666667 38.9733333,3.72 39.36,3.94666667 C40.0266667,3.64 40.3466667,3.13333333 40.3466667,3.13333333 L41.0266667,4.08 C41.0266667,4.08 40.6533333,4.34666667 40.0266667,4.56 C40.28,4.93333333 40.4266667,5.37333333 40.4266667,5.85333333 C40.4266667,7.12 39.4666667,8.13333333 37.96,8.13333333 C37.52,8.13333333 37.12,8.04 36.7733333,7.88 C36.5333333,8.01333333 36.3466667,8.21333333 36.3466667,8.48 C36.3466667,8.8 36.6133333,9.04 37.7466667,9.04 L38.6933333,9.04 Z M37.9733333,4.54666667 C37.1466667,4.54666667 36.6266667,5.13333333 36.6266667,5.86666667 C36.6266667,6.58666667 37.1333333,7.17333333 37.96,7.17333333 C38.8,7.17333333 39.2933333,6.58666667 39.2933333,5.85333333 C39.2933333,5.13333333 38.8,4.54666667 37.9733333,4.54666667 Z M37.9066667,12.0133333 C38.7733333,12.0133333 39.6533333,11.6133333 39.6533333,10.84 C39.6533333,10.0533333 38.76,10.0133333 38.1733333,10 C37.8133333,9.98666667 37.4266667,9.97333333 37.0533333,9.93333333 L36.16,10.7733333 C36.0533333,11.5466667 36.9733333,12.0133333 37.9066667,12.0133333 Z M45.8266667,3.6 C44.72,3.6 44.12,4.13333333 43.8666667,4.42666667 L43.7066667,4.42666667 L43.4666667,3.66666667 L42.6933333,3.66666667 L42.6933333,10.3333333 L43.8666667,10.3333333 L43.8666667,6.53333333 C43.8666667,5.36 44.6666667,4.61333333 45.6666667,4.61333333 C46.9866667,4.61333333 47.1866667,5.93333333 47.1866667,7.12 L47.1866667,10.3333333 L48.36,10.3333333 L48.36,6.72 C48.36,4.86666667 47.52,3.6 45.8266667,3.6 Z M53.2666667,3.6 C54.8666667,3.6 56.4266667,4.78666667 56.2933333,7.30666667 L51.2533333,7.30666667 C51.36,8.54666667 52.1333333,9.32 53.28,9.32 C54.04,9.32 54.6,8.98666667 54.92,8.46666667 L56.1466667,8.46666667 C55.64,9.68 54.4933333,10.4 53.28,10.4 C51.6,10.4 50.1066667,9.02666667 50.1066667,6.94666667 C50.1066667,4.88 51.6,3.6 53.2666667,3.6 Z M53.2533333,4.58666667 C52.2666667,4.58666667 51.52,5.26666667 51.3066667,6.33333333 L55.08,6.33333333 C54.92,5.30666667 54.2533333,4.58666667 53.2533333,4.58666667 Z M63,0.866666667 L64.1333333,0.866666667 L64.1333333,10.3333333 L63.36,10.3333333 L63.1066667,9.48 L62.8933333,9.48 C62.48,10.0266667 61.8533333,10.4 60.9866667,10.4 C59.2933333,10.4 57.9066667,8.97333333 57.9066667,7 C57.9066667,5.02666667 59.2933333,3.6 60.9866667,3.6 C61.92,3.6 62.5733333,4.04 63,4.66666667 L63,0.866666667 Z M59.08,7 C59.08,8.44 60.08,9.30666667 61.08,9.30666667 C61.96,9.30666667 63,8.64 63,7 C63,5.36 61.96,4.69333333 61.08,4.69333333 C60.08,4.69333333 59.08,5.56 59.08,7 Z M77.2666667,10.3333333 L75.72,10.3333333 L74.76,9.26666667 C74.16,9.97333333 73.44,10.4 72.4266667,10.4 C70.8266667,10.4 69.6266667,9.32 69.6266667,7.90666667 C69.6266667,6.78666667 70.3733333,6.06666667 71.28,5.4 C70.7066667,4.76 70.2133333,4.06666667 70.2133333,3.18666667 C70.2133333,2.02666667 71.04,0.933333333 72.5733333,0.933333333 C74.1733333,0.933333333 74.8666667,2.13333333 74.8666667,3.10666667 C74.8666667,4.18666667 74,4.92 73,5.6 L74.5866667,7.34666667 L75.28,5.93333333 L76.5333333,5.93333333 L75.3866667,8.24 L77.2666667,10.3333333 Z M72.5466667,2.06666667 C71.8666667,2.06666667 71.4133333,2.57333333 71.4133333,3.14666667 C71.4133333,3.69333333 71.84,4.29333333 72.2266667,4.74666667 C73.0133333,4.22666667 73.6666667,3.84 73.6666667,3.16 C73.6666667,2.61333333 73.24,2.06666667 72.5466667,2.06666667 Z M72.4,9.26666667 C73.0933333,9.26666667 73.5733333,8.92 73.9733333,8.38666667 L72.04,6.22666667 C71.32,6.72 70.8266667,7.16 70.8266667,7.85333333 C70.8266667,8.65333333 71.48,9.26666667 72.4,9.26666667 Z M87.4266667,0.866666667 L88.56,0.866666667 L88.56,10.3333333 L87.7866667,10.3333333 L87.5333333,9.48 L87.32,9.48 C86.9066667,10.0266667 86.28,10.4 85.4133333,10.4 C83.72,10.4 82.3333333,8.97333333 82.3333333,7 C82.3333333,5.02666667 83.72,3.6 85.4133333,3.6 C86.3466667,3.6 87,4.04 87.4266667,4.66666667 L87.4266667,0.866666667 Z M83.5066667,7 C83.5066667,8.44 84.5066667,9.30666667 85.5066667,9.30666667 C86.3866667,9.30666667 87.4266667,8.64 87.4266667,7 C87.4266667,5.36 86.3866667,4.69333333 85.5066667,4.69333333 C84.5066667,4.69333333 83.5066667,5.56 83.5066667,7 Z M93.6133333,3.6 C95.2133333,3.6 96.7733333,4.78666667 96.64,7.30666667 L91.6,7.30666667 C91.7066667,8.54666667 92.48,9.32 93.6266667,9.32 C94.3866667,9.32 94.9466667,8.98666667 95.2666667,8.46666667 L96.4933333,8.46666667 C95.9866667,9.68 94.84,10.4 93.6266667,10.4 C91.9466667,10.4 90.4533333,9.02666667 90.4533333,6.94666667 C90.4533333,4.88 91.9466667,3.6 93.6133333,3.6 Z M93.6,4.58666667 C92.6133333,4.58666667 91.8666667,5.26666667 91.6533333,6.33333333 L95.4266667,6.33333333 C95.2666667,5.30666667 94.6,4.58666667 93.6,4.58666667 Z M103.106667,3.66666667 L101.373333,9.37333333 L101.213333,9.37333333 L99.48,3.66666667 L98.2533333,3.66666667 L100.413333,10.3333333 L102.173333,10.3333333 L104.333333,3.66666667 L103.106667,3.66666667 Z M109.093333,3.6 C110.693333,3.6 112.253333,4.78666667 112.12,7.30666667 L107.08,7.30666667 C107.186667,8.54666667 107.96,9.32 109.106667,9.32 C109.866667,9.32 110.426667,8.98666667 110.746667,8.46666667 L111.973333,8.46666667 C111.466667,9.68 110.32,10.4 109.106667,10.4 C107.426667,10.4 105.933333,9.02666667 105.933333,6.94666667 C105.933333,4.88 107.426667,3.6 109.093333,3.6 Z M109.08,4.58666667 C108.093333,4.58666667 107.346667,5.26666667 107.133333,6.33333333 L110.906667,6.33333333 C110.746667,5.30666667 110.08,4.58666667 109.08,4.58666667 Z M114,0.866666667 L114,10.3333333 L115.16,10.3333333 L115.16,0.866666667 L114,0.866666667 Z M120.226667,10.4 C118.56,10.4 117.026667,8.97333333 117.026667,7 C117.026667,5.02666667 118.56,3.6 120.226667,3.6 C121.893333,3.6 123.426667,5.02666667 123.426667,7 C123.426667,8.97333333 121.906667,10.4 120.226667,10.4 Z M120.226667,9.30666667 C121.44,9.30666667 122.253333,8.30666667 122.253333,7 C122.253333,5.69333333 121.426667,4.69333333 120.226667,4.69333333 C119.026667,4.69333333 118.2,5.69333333 118.2,7 C118.2,8.30666667 119.026667,9.30666667 120.226667,9.30666667 Z M128.44,3.6 C130.133333,3.6 131.52,5.02666667 131.52,7 C131.52,8.97333333 130.133333,10.4 128.44,10.4 C127.506667,10.4 126.853333,9.96 126.426667,9.33333333 L126.426667,13 L125.293333,13 L125.293333,3.66666667 L126.066667,3.66666667 L126.32,4.50666667 L126.533333,4.50666667 C126.96,3.96 127.586667,3.6 128.44,3.6 Z M128.346667,9.30666667 C129.346667,9.30666667 130.346667,8.44 130.346667,7 C130.346667,5.56 129.346667,4.69333333 128.346667,4.69333333 C127.466667,4.69333333 126.426667,5.36 126.426667,7 C126.426667,8.64 127.466667,9.30666667 128.346667,9.30666667 Z M136.28,3.6 C137.88,3.6 139.44,4.78666667 139.306667,7.30666667 L134.266667,7.30666667 C134.373333,8.54666667 135.146667,9.32 136.293333,9.32 C137.053333,9.32 137.613333,8.98666667 137.933333,8.46666667 L139.16,8.46666667 C138.653333,9.68 137.506667,10.4 136.293333,10.4 C134.613333,10.4 133.12,9.02666667 133.12,6.94666667 C133.12,4.88 134.613333,3.6 136.28,3.6 Z M136.266667,4.58666667 C135.28,4.58666667 134.533333,5.26666667 134.32,6.33333333 L138.093333,6.33333333 C137.933333,5.30666667 137.266667,4.58666667 136.266667,4.58666667 Z M146.013333,0.866666667 L147.146667,0.866666667 L147.146667,10.3333333 L146.373333,10.3333333 L146.12,9.48 L145.906667,9.48 C145.493333,10.0266667 144.866667,10.4 144,10.4 C142.306667,10.4 140.92,8.97333333 140.92,7 C140.92,5.02666667 142.306667,3.6 144,3.6 C144.933333,3.6 145.586667,4.04 146.013333,4.66666667 L146.013333,0.866666667 Z M142.093333,7 C142.093333,8.44 143.093333,9.30666667 144.093333,9.30666667 C144.973333,9.30666667 146.013333,8.64 146.013333,7 C146.013333,5.36 144.973333,4.69333333 144.093333,4.69333333 C143.093333,4.69333333 142.093333,5.56 142.093333,7 Z M156.053333,3.6 C157.746667,3.6 159.133333,4.98666667 159.133333,7 C159.133333,9.01333333 157.746667,10.4 156.053333,10.4 C155.173333,10.4 154.546667,10.04 154.12,9.48 L153.933333,9.48 L153.68,10.3333333 L152.906667,10.3333333 L152.906667,0.866666667 L154.04,0.866666667 L154.04,4.64 C154.466667,4.01333333 155.12,3.6 156.053333,3.6 Z M155.96,9.30666667 C156.96,9.30666667 157.96,8.44 157.96,7 C157.96,5.56 156.96,4.69333333 155.96,4.69333333 C155.08,4.69333333 154.04,5.36 154.04,7 C154.04,8.64 155.08,9.30666667 155.96,9.30666667 Z M165.933333,3.66666667 L163.973333,9.18666667 L163.826667,9.18666667 L161.813333,3.66666667 L160.6,3.66666667 L163.026667,10.3333333 L163.573333,10.3333333 L163.373333,10.88 C163.146667,11.4933333 162.96,12.0533333 162.253333,12.0533333 C161.84,12.0533333 161.546667,11.8666667 161.453333,11.8 L160.933333,12.6133333 C161.12,12.84 161.68,13.0666667 162.306667,13.0666667 C163.933333,13.0666667 164.346667,11.5733333 164.68,10.5866667 L167.133333,3.66666667 L165.933333,3.66666667 Z M0.233333333,21.81 C0.233333333,21.3188864 0.388609558,20.914446 0.699166667,20.5966667 C1.00972377,20.2788873 1.4105531,20.12 1.90166667,20.12 L4.00333333,20.12 L4.00333333,21.68 L2.50833333,21.68 C2.11833138,21.68 1.92333333,21.8966645 1.92333333,22.33 L1.92333333,39.8366667 C1.92333333,40.2700022 2.11833138,40.4866667 2.50833333,40.4866667 L4.00333333,40.4866667 L4.00333333,42.0466667 L1.90166667,42.0466667 C1.4105531,42.0466667 1.00972377,41.8877794 0.699166667,41.57 C0.388609558,41.2522206 0.233333333,40.8477802 0.233333333,40.3566667 L0.233333333,21.81 Z M11.89,30.6933333 C11.89,31.2133359 12.1102756,31.6105542 12.5508333,31.885 C12.9913911,32.1594458 13.7966608,32.3399996 14.9666667,32.4266667 C16.2233396,32.5277783 17.1802745,32.8274975 17.8375,33.3258333 C18.4947255,33.8241692 18.8233333,34.5499952 18.8233333,35.5033333 L18.8233333,35.6333333 C18.8233333,36.1533359 18.7186122,36.6191646 18.5091667,37.0308333 C18.2997212,37.4425021 18.0108352,37.7927763 17.6425,38.0816667 C17.2741648,38.370557 16.8263915,38.5908326 16.2991667,38.7425 C15.7719418,38.8941674 15.1977809,38.97 14.5766667,38.97 C13.7388847,38.97 13.0202808,38.8580567 12.4208333,38.6341667 C11.8213859,38.4102767 11.3230575,38.1141685 10.9258333,37.7458333 C10.5286091,37.3774982 10.2288899,36.9586135 10.0266667,36.4891667 C9.82444343,36.0197199 9.70888903,35.546669 9.68,35.07 L11.2833333,34.68 C11.3555559,35.5033374 11.6733305,36.1641642 12.2366667,36.6625 C12.8000028,37.1608358 13.5511064,37.41 14.49,37.41 C15.2844484,37.41 15.9236087,37.2547238 16.4075,36.9441667 C16.8913913,36.6336096 17.1333333,36.1966695 17.1333333,35.6333333 C17.1333333,35.0266636 16.8950024,34.5933346 16.4183333,34.3333333 C15.9416643,34.073332 15.1688942,33.9072226 14.1,33.835 C12.8577716,33.7483329 11.9044478,33.4594469 11.24,32.9683333 C10.5755522,32.4772198 10.2433333,31.7622269 10.2433333,30.8233333 L10.2433333,30.6933333 C10.2433333,30.1877752 10.3516656,29.743613 10.5683333,29.3608333 C10.7850011,28.9780536 11.0774982,28.656668 11.4458333,28.3966667 C11.8141685,28.1366654 12.2294421,27.9416673 12.6916667,27.8116667 C13.1538912,27.681666 13.6377752,27.6166667 14.1433333,27.6166667 C14.8511146,27.6166667 15.4722195,27.7141657 16.0066667,27.9091667 C16.5411138,28.1041676 16.9888871,28.3569429 17.35,28.6675 C17.7111129,28.9780571 17.9891657,29.3355535 18.1841667,29.74 C18.3791676,30.1444465 18.5055553,30.5488869 18.5633333,30.9533333 L16.96,31.3433333 C16.8877774,30.6499965 16.6097246,30.1083353 16.1258333,29.7183333 C15.641942,29.3283314 15.0100039,29.1333333 14.23,29.1333333 C13.9266651,29.1333333 13.6341681,29.165833 13.3525,29.2308333 C13.0708319,29.2958337 12.8216677,29.3933327 12.605,29.5233333 C12.3883322,29.653334 12.2150006,29.8158324 12.085,30.0108333 C11.9549993,30.2058343 11.89,30.433332 11.89,30.6933333 Z M31.1516667,37.02 L30.8916667,37.02 C30.7038879,37.3522239 30.4763902,37.6374988 30.2091667,37.8758333 C29.9419431,38.1141679 29.6530571,38.3163881 29.3425,38.4825 C29.0319429,38.6486119 28.7069461,38.7713885 28.3675,38.8508333 C28.0280539,38.9302782 27.699446,38.97 27.3816667,38.97 C26.6594408,38.97 25.9877809,38.8472234 25.3666667,38.6016667 C24.7455524,38.3561099 24.2002801,38.0022245 23.7308333,37.54 C23.2613865,37.0777755 22.8930569,36.5036145 22.6258333,35.8175 C22.3586098,35.1313855 22.225,34.3477822 22.225,33.4666667 L22.225,33.12 C22.225,32.253329 22.3622208,31.4769479 22.6366667,30.7908333 C22.9111125,30.1047188 23.2794421,29.5269468 23.7416667,29.0575 C24.2038912,28.5880532 24.7455524,28.2305568 25.3666667,27.985 C25.9877809,27.7394432 26.6449965,27.6166667 27.3383333,27.6166667 C28.0750037,27.6166667 28.7574969,27.7863872 29.3858333,28.1258333 C30.0141698,28.4652795 30.5161092,28.9599967 30.8916667,29.61 L31.1516667,29.61 L31.1516667,27.92 L32.8416667,27.92 L32.8416667,43 L31.1516667,43 L31.1516667,37.02 Z M27.555,37.3666667 C28.0605581,37.3666667 28.5299978,37.2727787 28.9633333,37.085 C29.3966688,36.8972213 29.7758317,36.6300017 30.1008333,36.2833333 C30.425835,35.9366649 30.6822213,35.5213913 30.87,35.0375 C31.0577787,34.5536087 31.1516667,34.0155585 31.1516667,33.4233333 L31.1516667,33.1633333 C31.1516667,32.5855527 31.0577787,32.0547246 30.87,31.5708333 C30.6822213,31.086942 30.425835,30.6716684 30.1008333,30.325 C29.7758317,29.9783316 29.3930578,29.707501 28.9525,29.5125 C28.5119422,29.317499 28.0461136,29.22 27.555,29.22 C27.0494419,29.22 26.5763911,29.3138879 26.1358333,29.5016667 C25.6952756,29.6894454 25.3125016,29.9566649 24.9875,30.3033333 C24.6624984,30.6500017 24.4097231,31.0616643 24.2291667,31.5383333 C24.0486102,32.0150024 23.9583333,32.5422193 23.9583333,33.12 L23.9583333,33.4666667 C23.9583333,34.0733364 24.0486102,34.6149976 24.2291667,35.0916667 C24.4097231,35.5683357 24.6624984,35.9763872 24.9875,36.3158333 C25.3125016,36.6552795 25.6916645,36.9152769 26.125,37.0958333 C26.5583355,37.2763898 27.0349974,37.3666667 27.555,37.3666667 Z M43.8483333,27.92 L45.5383333,27.92 L45.5383333,38.6666667 L43.8483333,38.6666667 L43.8483333,36.7166667 L43.5883333,36.7166667 C43.2416649,37.4100035 42.7866695,37.9588869 42.2233333,38.3633333 C41.6599972,38.7677798 40.9450043,38.97 40.0783333,38.97 C39.4861081,38.97 38.9408358,38.872501 38.4425,38.6775 C37.9441642,38.482499 37.5180573,38.1900019 37.1641667,37.8 C36.810276,37.409998 36.5358343,36.926114 36.3408333,36.3483333 C36.1458324,35.7705527 36.0483333,35.0988927 36.0483333,34.3333333 L36.0483333,27.92 L37.7383333,27.92 L37.7383333,34.1166667 C37.7383333,35.243339 37.9694421,36.0666641 38.4316667,36.5866667 C38.8938912,37.1066693 39.6016619,37.3666667 40.555,37.3666667 C41.5805607,37.3666667 42.3858304,37.0163924 42.9708333,36.3158333 C43.5558363,35.6152743 43.8483333,34.6800058 43.8483333,33.51 L43.8483333,27.92 Z M57.2383333,36.8466667 L56.9783333,36.8466667 C56.6316649,37.5688925 56.151392,38.1033316 55.5375,38.45 C54.923608,38.7966684 54.2772256,38.97 53.5983333,38.97 C52.890552,38.97 52.2333364,38.8508345 51.6266667,38.6125 C51.019997,38.3741655 50.4891689,38.0202801 50.0341667,37.5508333 C49.5791644,37.0813865 49.221668,36.5072256 48.9616667,35.8283333 C48.7016654,35.149441 48.5716667,34.3622267 48.5716667,33.4666667 L48.5716667,33.12 C48.5716667,32.2388845 48.7016654,31.4588923 48.9616667,30.78 C49.221668,30.1011077 49.5791644,29.5269468 50.0341667,29.0575 C50.4891689,28.5880532 51.019997,28.2305568 51.6266667,27.985 C52.2333364,27.7394432 52.8761077,27.6166667 53.555,27.6166667 C54.2916703,27.6166667 54.9597192,27.779165 55.5591667,28.1041667 C56.1586141,28.4291683 56.6316649,28.9311077 56.9783333,29.61 L57.2383333,29.61 L57.2383333,27.92 L58.9283333,27.92 L58.9283333,36.4566667 C58.9283333,36.8900022 59.1233314,37.1066667 59.5133333,37.1066667 L60.055,37.1066667 L60.055,38.6666667 L58.9066667,38.6666667 C58.4155531,38.6666667 58.0147238,38.5077794 57.7041667,38.19 C57.3936096,37.8722206 57.2383333,37.4677802 57.2383333,36.9766667 L57.2383333,36.8466667 Z M53.7716667,37.3666667 C54.2772247,37.3666667 54.7430534,37.2727787 55.1691667,37.085 C55.5952799,36.8972213 55.9599985,36.6300017 56.2633333,36.2833333 C56.5666682,35.9366649 56.8049991,35.5213913 56.9783333,35.0375 C57.1516675,34.5536087 57.2383333,34.0155585 57.2383333,33.4233333 L57.2383333,33.1633333 C57.2383333,32.5855527 57.1516675,32.0547246 56.9783333,31.5708333 C56.8049991,31.086942 56.5630571,30.6716684 56.2525,30.325 C55.9419429,29.9783316 55.5736132,29.707501 55.1475,29.5125 C54.7213868,29.317499 54.2627802,29.22 53.7716667,29.22 C53.2661086,29.22 52.803891,29.3138879 52.385,29.5016667 C51.966109,29.6894454 51.6013904,29.9530539 51.2908333,30.2925 C50.9802762,30.6319461 50.7383342,31.0436087 50.565,31.5275 C50.3916658,32.0113913 50.305,32.5422193 50.305,33.12 L50.305,33.4666667 C50.305,34.6944506 50.6263857,35.6513855 51.2691667,36.3375 C51.9119477,37.0236145 52.746106,37.3666667 53.7716667,37.3666667 Z M62.0916667,27.92 L65.9916667,27.92 L65.9916667,29.35 L66.2516667,29.35 C66.5261125,28.7577748 66.9161086,28.3208347 67.4216667,28.0391667 C67.9272247,27.7574986 68.5049967,27.6166667 69.155,27.6166667 C70.2383387,27.6166667 71.1122189,27.970552 71.7766667,28.6783333 C72.4411144,29.3861146 72.7949998,30.4188821 72.8383333,31.7766667 L71.0616667,32.0366667 C71.0616667,31.039995 70.8233357,30.3213911 70.3466667,29.8808333 C69.8699976,29.4402756 69.2850035,29.22 68.5916667,29.22 C68.1438866,29.22 67.7575016,29.3066658 67.4325,29.48 C67.1074984,29.6533342 66.8366677,29.8916651 66.62,30.195 C66.4033322,30.4983348 66.2444449,30.8522202 66.1433333,31.2566667 C66.0422217,31.6611131 65.9916667,32.0944421 65.9916667,32.5566667 L65.9916667,37.1066667 L68.7216667,37.1066667 L68.7216667,38.6666667 L61.8316667,38.6666667 L61.8316667,37.1066667 L64.3016667,37.1066667 L64.3016667,29.48 L62.0916667,29.48 L62.0916667,27.92 Z M77.1933333,33.8133333 C77.2366669,34.8822276 77.5688858,35.7416634 78.19,36.3916667 C78.8111142,37.0416699 79.6777722,37.3666667 80.79,37.3666667 C81.2955581,37.3666667 81.7361092,37.3088895 82.1116667,37.1933333 C82.4872241,37.0777772 82.8086098,36.9188899 83.0758333,36.7166667 C83.3430569,36.5144434 83.5597214,36.2797236 83.7258333,36.0125 C83.8919453,35.7452764 84.025555,35.4600015 84.1266667,35.1566667 L85.73,35.59 C85.4266651,36.5866716 84.8669485,37.3991635 84.0508333,38.0275 C83.2347181,38.6558365 82.1333403,38.97 80.7466667,38.97 C79.9811073,38.97 79.2769477,38.8363902 78.6341667,38.5691667 C77.9913857,38.3019431 77.4388912,37.9227802 76.9766667,37.4316667 C76.5144421,36.9405531 76.1533346,36.3555589 75.8933333,35.6766667 C75.633332,34.9977744 75.5033333,34.2466708 75.5033333,33.4233333 L75.5033333,32.9033333 C75.5033333,32.1522185 75.6369431,31.4516699 75.9041667,30.8016667 C76.1713902,30.1516634 76.5433309,29.5919468 77.02,29.1225 C77.496669,28.6530532 78.0563857,28.2847236 78.6991667,28.0175 C79.3419477,27.7502764 80.0388851,27.6166667 80.79,27.6166667 C81.6711155,27.6166667 82.4330523,27.779165 83.0758333,28.1041667 C83.7186143,28.4291683 84.2458313,28.8299976 84.6575,29.3066667 C85.0691687,29.7833357 85.372499,30.3033305 85.5675,30.8666667 C85.762501,31.4300028 85.86,31.9499976 85.86,32.4266667 L85.86,33.8133333 L77.1933333,33.8133333 Z M80.79,29.22 C80.3133309,29.22 79.8691687,29.2958326 79.4575,29.4475 C79.0458313,29.5991674 78.6847238,29.8122208 78.3741667,30.0866667 C78.0636096,30.3611125 77.8108343,30.6824982 77.6158333,31.0508333 C77.4208324,31.4191685 77.2944447,31.8199978 77.2366667,32.2533333 L84.17,32.2533333 C84.141111,31.7911088 84.0291676,31.3722241 83.8341667,30.9966667 C83.6391657,30.6211092 83.3863904,30.3033346 83.0758333,30.0433333 C82.7652762,29.783332 82.4113909,29.5811118 82.0141667,29.4366667 C81.6169425,29.2922215 81.208891,29.22 80.79,29.22 Z M97.5383333,37.02 L97.2783333,37.02 C97.1049991,37.3522239 96.8847236,37.6411099 96.6175,37.8866667 C96.3502764,38.1322234 96.0613904,38.3344436 95.7508333,38.4933333 C95.4402762,38.652223 95.1116684,38.7713885 94.765,38.8508333 C94.4183316,38.9302782 94.0861127,38.97 93.7683333,38.97 C93.0461075,38.97 92.3744475,38.8472234 91.7533333,38.6016667 C91.1322191,38.3561099 90.5869468,38.0022245 90.1175,37.54 C89.6480532,37.0777755 89.2797236,36.5036145 89.0125,35.8175 C88.7452764,35.1313855 88.6116667,34.3477822 88.6116667,33.4666667 L88.6116667,33.12 C88.6116667,32.253329 88.7488875,31.4769479 89.0233333,30.7908333 C89.2977791,30.1047188 89.6661088,29.5269468 90.1283333,29.0575 C90.5905579,28.5880532 91.1322191,28.2305568 91.7533333,27.985 C92.3744475,27.7394432 93.0316632,27.6166667 93.725,27.6166667 C94.4616703,27.6166667 95.1513857,27.779165 95.7941667,28.1041667 C96.4369477,28.4291683 96.9316649,28.9311077 97.2783333,29.61 L97.5383333,29.61 L97.5383333,23.5 L99.2283333,23.5 L99.2283333,38.6666667 L97.5383333,38.6666667 L97.5383333,37.02 Z M93.9416667,37.3666667 C94.4472247,37.3666667 94.9166645,37.2727787 95.35,37.085 C95.7833355,36.8972213 96.1624984,36.6300017 96.4875,36.2833333 C96.8125016,35.9366649 97.0688879,35.5213913 97.2566667,35.0375 C97.4444454,34.5536087 97.5383333,34.0155585 97.5383333,33.4233333 L97.5383333,33.1633333 C97.5383333,32.5855527 97.4444454,32.0547246 97.2566667,31.5708333 C97.0688879,31.086942 96.8125016,30.6716684 96.4875,30.325 C96.1624984,29.9783316 95.7797244,29.707501 95.3391667,29.5125 C94.8986089,29.317499 94.4327802,29.22 93.9416667,29.22 C93.4361086,29.22 92.9630578,29.3138879 92.5225,29.5016667 C92.0819422,29.6894454 91.6991683,29.9566649 91.3741667,30.3033333 C91.049165,30.6500017 90.7963898,31.0616643 90.6158333,31.5383333 C90.4352769,32.0150024 90.345,32.5422193 90.345,33.12 L90.345,33.4666667 C90.345,34.0733364 90.4352769,34.6149976 90.6158333,35.0916667 C90.7963898,35.5683357 91.049165,35.9763872 91.3741667,36.3158333 C91.6991683,36.6552795 92.0783312,36.9152769 92.5116667,37.0958333 C92.9450022,37.2763898 93.4216641,37.3666667 93.9416667,37.3666667 Z M115.738333,37.1066667 L119.638333,37.1066667 L119.638333,25.06 L115.868333,25.06 L115.868333,23.5 L121.328333,23.5 L121.328333,37.1066667 L125.228333,37.1066667 L125.228333,38.6666667 L115.738333,38.6666667 L115.738333,37.1066667 Z M136.798333,36.8466667 L136.538333,36.8466667 C136.191665,37.5688925 135.711392,38.1033316 135.0975,38.45 C134.483608,38.7966684 133.837226,38.97 133.158333,38.97 C132.450552,38.97 131.793336,38.8508345 131.186667,38.6125 C130.579997,38.3741655 130.049169,38.0202801 129.594167,37.5508333 C129.139164,37.0813865 128.781668,36.5072256 128.521667,35.8283333 C128.261665,35.149441 128.131667,34.3622267 128.131667,33.4666667 L128.131667,33.12 C128.131667,32.2388845 128.261665,31.4588923 128.521667,30.78 C128.781668,30.1011077 129.139164,29.5269468 129.594167,29.0575 C130.049169,28.5880532 130.579997,28.2305568 131.186667,27.985 C131.793336,27.7394432 132.436108,27.6166667 133.115,27.6166667 C133.85167,27.6166667 134.519719,27.779165 135.119167,28.1041667 C135.718614,28.4291683 136.191665,28.9311077 136.538333,29.61 L136.798333,29.61 L136.798333,27.92 L138.488333,27.92 L138.488333,36.4566667 C138.488333,36.8900022 138.683331,37.1066667 139.073333,37.1066667 L139.615,37.1066667 L139.615,38.6666667 L138.466667,38.6666667 C137.975553,38.6666667 137.574724,38.5077794 137.264167,38.19 C136.95361,37.8722206 136.798333,37.4677802 136.798333,36.9766667 L136.798333,36.8466667 Z M133.331667,37.3666667 C133.837225,37.3666667 134.303053,37.2727787 134.729167,37.085 C135.15528,36.8972213 135.519998,36.6300017 135.823333,36.2833333 C136.126668,35.9366649 136.364999,35.5213913 136.538333,35.0375 C136.711668,34.5536087 136.798333,34.0155585 136.798333,33.4233333 L136.798333,33.1633333 C136.798333,32.5855527 136.711668,32.0547246 136.538333,31.5708333 C136.364999,31.086942 136.123057,30.6716684 135.8125,30.325 C135.501943,29.9783316 135.133613,29.707501 134.7075,29.5125 C134.281387,29.317499 133.82278,29.22 133.331667,29.22 C132.826109,29.22 132.363891,29.3138879 131.945,29.5016667 C131.526109,29.6894454 131.16139,29.9530539 130.850833,30.2925 C130.540276,30.6319461 130.298334,31.0436087 130.125,31.5275 C129.951666,32.0113913 129.865,32.5422193 129.865,33.12 L129.865,33.4666667 C129.865,34.6944506 130.186386,35.6513855 130.829167,36.3375 C131.471948,37.0236145 132.306106,37.3666667 133.331667,37.3666667 Z M143.558333,38.6666667 L141.868333,38.6666667 L141.868333,23.5 L143.558333,23.5 L143.558333,29.61 L143.818333,29.61 C144.193891,28.9599967 144.713886,28.4652795 145.378333,28.1258333 C146.042781,27.7863872 146.764996,27.6166667 147.545,27.6166667 C148.209448,27.6166667 148.837775,27.7394432 149.43,27.985 C150.022225,28.2305568 150.545831,28.5844421 151.000833,29.0466667 C151.455836,29.5088912 151.816943,30.079441 152.084167,30.7583333 C152.35139,31.4372256 152.485,32.2099957 152.485,33.0766667 L152.485,33.51 C152.485,34.3911155 152.355001,35.1711077 152.095,35.85 C151.834999,36.5288923 151.477502,37.0994421 151.0225,37.5616667 C150.567498,38.0238912 150.03667,38.3741655 149.43,38.6125 C148.82333,38.8508345 148.180559,38.97 147.501667,38.97 C147.154998,38.97 146.801113,38.9302782 146.44,38.8508333 C146.078887,38.7713885 145.735835,38.6486119 145.410833,38.4825 C145.085832,38.3163881 144.786112,38.1141679 144.511667,37.8758333 C144.237221,37.6374988 144.006112,37.3522239 143.818333,37.02 L143.558333,37.02 L143.558333,38.6666667 Z M147.155,37.3666667 C147.675003,37.3666667 148.151664,37.2763898 148.585,37.0958333 C149.018335,36.9152769 149.397498,36.6588905 149.7225,36.3266667 C150.047502,35.9944428 150.300277,35.5900024 150.480833,35.1133333 C150.66139,34.6366643 150.751667,34.1022252 150.751667,33.51 L150.751667,33.0766667 C150.751667,32.498886 150.66139,31.9752801 150.480833,31.5058333 C150.300277,31.0363865 150.047502,30.6319461 149.7225,30.2925 C149.397498,29.9530539 149.014724,29.6894454 148.574167,29.5016667 C148.133609,29.3138879 147.660558,29.22 147.155,29.22 C146.649442,29.22 146.180002,29.317499 145.746667,29.5125 C145.313331,29.707501 144.934168,29.9783316 144.609167,30.325 C144.284165,30.6716684 144.027779,31.086942 143.84,31.5708333 C143.652221,32.0547246 143.558333,32.5855527 143.558333,33.1633333 L143.558333,33.4233333 C143.558333,34.0155585 143.652221,34.5536087 143.84,35.0375 C144.027779,35.5213913 144.284165,35.9366649 144.609167,36.2833333 C144.934168,36.6300017 145.313331,36.8972213 145.746667,37.085 C146.180002,37.2727787 146.649442,37.3666667 147.155,37.3666667 Z M157.75,30.6933333 C157.75,31.2133359 157.970276,31.6105542 158.410833,31.885 C158.851391,32.1594458 159.656661,32.3399996 160.826667,32.4266667 C162.08334,32.5277783 163.040274,32.8274975 163.6975,33.3258333 C164.354726,33.8241692 164.683333,34.5499952 164.683333,35.5033333 L164.683333,35.6333333 C164.683333,36.1533359 164.578612,36.6191646 164.369167,37.0308333 C164.159721,37.4425021 163.870835,37.7927763 163.5025,38.0816667 C163.134165,38.370557 162.686392,38.5908326 162.159167,38.7425 C161.631942,38.8941674 161.057781,38.97 160.436667,38.97 C159.598885,38.97 158.880281,38.8580567 158.280833,38.6341667 C157.681386,38.4102767 157.183058,38.1141685 156.785833,37.7458333 C156.388609,37.3774982 156.08889,36.9586135 155.886667,36.4891667 C155.684443,36.0197199 155.568889,35.546669 155.54,35.07 L157.143333,34.68 C157.215556,35.5033374 157.533331,36.1641642 158.096667,36.6625 C158.660003,37.1608358 159.411106,37.41 160.35,37.41 C161.144448,37.41 161.783609,37.2547238 162.2675,36.9441667 C162.751391,36.6336096 162.993333,36.1966695 162.993333,35.6333333 C162.993333,35.0266636 162.755002,34.5933346 162.278333,34.3333333 C161.801664,34.073332 161.028894,33.9072226 159.96,33.835 C158.717772,33.7483329 157.764448,33.4594469 157.1,32.9683333 C156.435552,32.4772198 156.103333,31.7622269 156.103333,30.8233333 L156.103333,30.6933333 C156.103333,30.1877752 156.211666,29.743613 156.428333,29.3608333 C156.645001,28.9780536 156.937498,28.656668 157.305833,28.3966667 C157.674169,28.1366654 158.089442,27.9416673 158.551667,27.8116667 C159.013891,27.681666 159.497775,27.6166667 160.003333,27.6166667 C160.711115,27.6166667 161.33222,27.7141657 161.866667,27.9091667 C162.401114,28.1041676 162.848887,28.3569429 163.21,28.6675 C163.571113,28.9780571 163.849166,29.3355535 164.044167,29.74 C164.239168,30.1444465 164.365555,30.5488869 164.423333,30.9533333 L162.82,31.3433333 C162.747777,30.6499965 162.469725,30.1083353 161.985833,29.7183333 C161.501942,29.3283314 160.870004,29.1333333 160.09,29.1333333 C159.786665,29.1333333 159.494168,29.165833 159.2125,29.2308333 C158.930832,29.2958337 158.681668,29.3933327 158.465,29.5233333 C158.248332,29.653334 158.075001,29.8158324 157.945,30.0108333 C157.814999,30.2058343 157.75,30.433332 157.75,30.6933333 Z M174.433333,40.3566667 C174.433333,40.8477802 174.278057,41.2522206 173.9675,41.57 C173.656943,41.8877794 173.256114,42.0466667 172.765,42.0466667 L170.663333,42.0466667 L170.663333,40.4866667 L172.158333,40.4866667 C172.548335,40.4866667 172.743333,40.2700022 172.743333,39.8366667 L172.743333,22.33 C172.743333,21.8966645 172.548335,21.68 172.158333,21.68 L170.663333,21.68 L170.663333,20.12 L172.765,20.12 C173.256114,20.12 173.656943,20.2788873 173.9675,20.5966667 C174.278057,20.914446 174.433333,21.3188864 174.433333,21.81 L174.433333,40.3566667 Z M63.8466667,58.6266667 C63.8466667,59.2666667 64.06,59.4533333 64.5666667,59.4533333 L64.5666667,60.3333333 L64.1,60.3333333 C63.4866667,60.3333333 63.1,60.0933333 62.9133333,59.5333333 C62.5,60.08 61.82,60.4 60.9666667,60.4 C59.6333333,60.4 58.7133333,59.6133333 58.7133333,58.4533333 C58.7133333,56.4933333 61.26,56.32 62.7933333,56.1333333 C62.7533333,55.3066667 62.4333333,54.6533333 61.38,54.6533333 C60.2066667,54.6533333 60.0333333,55.48 60.0333333,55.48 L58.8866667,55.48 C59.0066667,54.56 59.8733333,53.6 61.42,53.6 C62.82,53.6 63.8466667,54.3866667 63.8466667,56.32 L63.8466667,58.6266667 Z M59.82,58.4933333 C59.82,59.92 62.7266667,59.64 62.78,57.84 L62.78,57.1466667 C61.2066667,57.3066667 59.82,57.52 59.82,58.4933333 Z M69.5933333,59.16 C69.4733333,59.2533333 69.3266667,59.3466667 69.06,59.3466667 C68.6066667,59.3466667 68.2066667,59.0666667 68.2066667,58.2133333 L68.2066667,54.64 L69.8066667,54.64 L69.8066667,53.6666667 L68.1933333,53.6666667 L68.1933333,51.6666667 L67.2066667,51.6666667 L67.2066667,52.8666667 C67.2066667,53.4133333 66.8333333,53.7866667 66.3133333,53.7866667 L65.9,53.7866667 L65.9,54.6533333 L67.06,54.6533333 L67.06,58.32 C67.06,59.5333333 67.7666667,60.4 68.9266667,60.4 C69.54,60.4 69.9,60.1466667 70.1,59.9733333 L69.5933333,59.16 Z M82.9533333,51 L81.7,51 L81.7,56.2 C81.7,58.3866667 80.62,59.2266667 79.2066667,59.2266667 C77.7933333,59.2266667 76.6866667,58.3866667 76.6866667,56.2 L76.6866667,51 L75.4333333,51 L75.4333333,56.3333333 C75.4333333,59.2 77.1533333,60.4 79.2066667,60.4 C81.26,60.4 82.9533333,59.2 82.9533333,56.3333333 L82.9533333,51 Z M92.7266667,57.6666667 L91.3533333,57.6666667 C90.9266667,58.6266667 90.0333333,59.2133333 88.9133333,59.2133333 C87.1533333,59.2133333 85.9533333,57.7866667 85.9533333,55.6666667 C85.9533333,53.5466667 87.1533333,52.12 88.9,52.12 C89.9933333,52.12 90.9133333,52.68 91.3533333,53.6666667 L92.7266667,53.6666667 C92.14,52.04 90.6066667,50.9333333 88.9,50.9333333 C86.6466667,50.9333333 84.6866667,52.8666667 84.6866667,55.6666667 C84.6866667,58.4666667 86.6466667,60.4 88.9133333,60.4 C90.6733333,60.4 92.1666667,59.24 92.7266667,57.6666667 Z M97.3933333,60.4 C95.7266667,60.4 94.1933333,58.9733333 94.1933333,57 C94.1933333,55.0266667 95.7266667,53.6 97.3933333,53.6 C99.06,53.6 100.593333,55.0266667 100.593333,57 C100.593333,58.9733333 99.0733333,60.4 97.3933333,60.4 Z M97.3933333,59.3066667 C98.6066667,59.3066667 99.42,58.3066667 99.42,57 C99.42,55.6933333 98.5933333,54.6933333 97.3933333,54.6933333 C96.1933333,54.6933333 95.3666667,55.6933333 95.3666667,57 C95.3666667,58.3066667 96.1933333,59.3066667 97.3933333,59.3066667 Z M105.593333,53.6 C104.486667,53.6 103.886667,54.1333333 103.633333,54.4266667 L103.473333,54.4266667 L103.233333,53.6666667 L102.46,53.6666667 L102.46,60.3333333 L103.633333,60.3333333 L103.633333,56.5333333 C103.633333,55.36 104.433333,54.6133333 105.433333,54.6133333 C106.753333,54.6133333 106.953333,55.9333333 106.953333,57.12 L106.953333,60.3333333 L108.126667,60.3333333 L108.126667,56.72 C108.126667,54.8666667 107.286667,53.6 105.593333,53.6 Z M113.273333,53.6 C112.166667,53.6 111.566667,54.1333333 111.313333,54.4266667 L111.153333,54.4266667 L110.913333,53.6666667 L110.14,53.6666667 L110.14,60.3333333 L111.313333,60.3333333 L111.313333,56.5333333 C111.313333,55.36 112.113333,54.6133333 113.113333,54.6133333 C114.433333,54.6133333 114.633333,55.9333333 114.633333,57.12 L114.633333,60.3333333 L115.806667,60.3333333 L115.806667,56.72 C115.806667,54.8666667 114.966667,53.6 113.273333,53.6 Z" id="Designed-&amp;-developed" fill="#6AA1F4"></path>
    </g>
</svg>